<?xml version="1.0" encoding="UTF-8"?>
<svg width="32px" height="32px" viewBox="0 0 32 32" version="1.1" xmlns="http://www.w3.org/2000/svg" xmlns:xlink="http://www.w3.org/1999/xlink">
    <!-- Generator: Sketch 50 (54983) - http://www.bohemiancoding.com/sketch -->
    <title>jichupeizhi</title>
    <desc>Created with Sketch.</desc>
    <defs></defs>
    <g id="Page-1" stroke="none" stroke-width="1" fill="none" fill-rule="evenodd">
        <g id="Apple-TV" transform="translate(-322.000000, -517.000000)">
            <g id="jichupeizhi" transform="translate(322.000000, 517.000000)">
                <rect id="Rectangle-2-Copy-6" x="0" y="0" width="32" height="32"></rect>
                <path d="M28.90625,21.1953125 C29.5103281,21.1953125 30,20.7056406 30,20.1015625 L30,10.53125 C30,8.79732812 28.5893906,7.38671875 26.8554688,7.38671875 C26.5219297,7.38671875 26.2003125,7.43894531 25.8984375,7.53557812 L25.8984375,7.3046875 C25.8984375,5.58585938 24.5000781,4.1875 22.78125,4.1875 C22.4232109,4.1875 22.0790078,4.24820312 21.7585391,4.35982031 C21.4193125,3.00575781 20.1920703,2 18.734375,2 C17.2766797,2 16.0494375,3.00575781 15.7102109,4.35982031 C15.3897422,4.24820312 15.0455391,4.1875 14.6875,4.1875 C12.9686719,4.1875 11.5703125,5.58585938 11.5703125,7.3046875 L11.5703125,18.7046797 C11.5703125,19.2600859 11.2091016,20.0438672 10.617875,20.0992656 L6.44822656,18.1865156 C6.41535937,18.1714766 6.38178125,18.1580234 6.34760156,18.1462656 C6.00482031,18.0284687 5.64607031,17.96875 5.28125,17.96875 C3.47196875,17.96875 2,19.4407187 2,21.25 C2,22.1387813 2.3495625,22.9709609 2.98432031,23.5931953 C3.02489844,23.6329531 3.06848437,23.6695391 3.11475,23.7025156 L3.99117188,24.3278672 C4.00954687,24.3409922 4.02830469,24.3535156 4.04744531,24.3654922 L9.32675781,27.659375 C11.7809687,29.190625 14.6072734,30 17.5000781,30 L23.9023438,30 C26.5100625,30 28.8270078,28.3476719 29.6677734,25.8883203 C29.8631719,25.3167266 29.5582344,24.6949844 28.9866406,24.4995313 C28.4149922,24.3041328 27.7933047,24.6090703 27.5978516,25.1806641 C27.0597266,26.7548984 25.5746328,27.8125 23.9023438,27.8125 L17.5000781,27.8125 C15.0171016,27.8125 12.5912187,27.11775 10.4846563,25.8034453 L5.23416406,22.5275 L4.46651563,21.9798047 C4.28604688,21.7789922 4.1875,21.5224531 4.1875,21.25 C4.1875,20.6469063 4.67815625,20.15625 5.28125,20.15625 C5.38838281,20.15625 5.49338281,20.1713984 5.5940625,20.2013672 L9.76442188,22.1143906 C9.78963281,22.1259844 9.81533594,22.1365937 9.84142187,22.1462187 C10.1267812,22.2516016 10.3949687,22.2981406 10.6621719,22.2876953 C12.5742656,22.2146875 13.7578125,20.3709531 13.7578125,18.7046797 L13.7578125,7.3046875 C13.7578125,6.79204688 14.1748594,6.375 14.6875,6.375 C15.2001406,6.375 15.6171875,6.79204688 15.6171875,7.3046875 L15.6171875,14.849375 C15.6171875,15.4534531 16.1068594,15.943125 16.7109375,15.943125 C17.3150156,15.943125 17.8046875,15.4534531 17.8046875,14.849375 L17.8046875,7.3046875 C17.8046875,7.28702344 17.8045234,7.26935937 17.80425,7.25169531 C17.8045234,7.24125 17.8046875,7.23080469 17.8046875,7.22025 L17.8046875,5.1171875 C17.8046875,4.60454688 18.2217344,4.1875 18.734375,4.1875 C19.2470156,4.1875 19.6640625,4.60454688 19.6640625,5.1171875 L19.6640625,14.2478125 C19.6640625,14.8518906 20.1537344,15.3415625 20.7578125,15.3415625 C21.3618906,15.3415625 21.8515625,14.8518906 21.8515625,14.2478125 L21.8515625,7.3046875 C21.8515625,6.79204688 22.2686094,6.375 22.78125,6.375 C23.2938906,6.375 23.7109375,6.79204688 23.7109375,7.3046875 L23.7109375,14.849375 C23.7109375,15.4534531 24.2006094,15.943125 24.8046875,15.943125 C25.4087656,15.943125 25.8984375,15.4534531 25.8984375,14.849375 L25.8984375,10.53125 C25.8984375,10.0035703 26.3277891,9.57421875 26.8554688,9.57421875 C27.3831484,9.57421875 27.8125,10.0035703 27.8125,10.53125 L27.8125,20.1015625 C27.8125,20.7056406 28.3021719,21.1953125 28.90625,21.1953125 Z" id="hold" fill="#FFFFFF" fill-rule="nonzero"></path>
            </g>
        </g>
    </g>
</svg>