<?xml version="1.0" encoding="UTF-8"?>
<svg width="32px" height="32px" viewBox="0 0 32 32" version="1.1" xmlns="http://www.w3.org/2000/svg" xmlns:xlink="http://www.w3.org/1999/xlink">
    <!-- Generator: Sketch 50 (54983) - http://www.bohemiancoding.com/sketch -->
    <title>quanlianlu</title>
    <desc>Created with Sketch.</desc>
    <defs></defs>
    <g id="Page-1" stroke="none" stroke-width="1" fill="none" fill-rule="evenodd">
        <g id="Apple-TV" transform="translate(-322.000000, -327.000000)">
            <g id="quanlianlu" transform="translate(322.000000, 326.000000)">
                <rect id="Rectangle-2-Copy-2" x="0" y="0" width="32" height="32"></rect>
                <path d="M24.7640547,12.6360528 C24.7909062,12.3563736 24.8046875,12.0729054 24.8046875,11.7863071 C24.8046875,6.94153734 20.8794375,3 16.0546875,3 C11.2299375,3 7.3046875,6.94153734 7.3046875,11.7863071 C7.3046875,12.0573646 7.31699219,12.3255666 7.34105469,12.5904189 C4.205,13.927585 2,17.0512819 2,20.6824429 C2,25.5272127 5.92525,29.46875 10.75,29.46875 C12.7181484,29.46875 14.5366172,28.8127973 16,27.7072602 C17.4633828,28.8127973 19.2818516,29.46875 21.25,29.46875 C22.4899297,29.46875 23.6887344,29.2132881 24.8129453,28.7094483 C25.3645234,28.4622236 25.6121484,27.8128057 25.3659453,27.2588839 C25.1197969,26.7050171 24.4730625,26.4564195 23.921375,26.7035893 C23.0795703,27.0808514 22.1807812,27.2721732 21.25,27.2721732 C19.8973047,27.2721732 18.6388906,26.8590521 17.5933203,26.1519191 C18.7862187,24.6500646 19.5,22.7483783 19.5,20.6824429 C19.5,20.4113854 19.4876953,20.1431834 19.4636328,19.8783311 C21.6761797,18.9349563 23.42525,17.1022425 24.2635547,14.8294994 C26.3701172,15.9275681 27.8125,18.1390267 27.8125,20.6824429 C27.8125,21.6349335 27.6148594,22.5532674 27.2251016,23.4119641 C26.9745781,23.963909 27.2170625,24.6153038 27.7667266,24.8668668 C28.3163906,25.1184297 28.9650391,24.8748843 29.2156172,24.3229944 C29.7360781,23.1763264 30,21.9514603 30,20.6824429 C30,17.0920284 27.8441641,13.9977107 24.7640547,12.6360528 Z M10.75,27.2721732 C7.1314375,27.2721732 4.1875,24.3160202 4.1875,20.6824429 C4.1875,18.1021242 5.67210156,15.8634281 7.82859375,14.7823828 C8.64688281,17.0406834 10.3626484,18.8698827 12.5405781,19.8326972 C12.5137813,20.1123764 12.5,20.3958446 12.5,20.6824429 C12.5,22.7483783 13.2137812,24.6500646 14.4066797,26.1519191 C13.3611094,26.8590521 12.1026953,27.2721732 10.75,27.2721732 Z M13.0411328,17.6392506 C11.6224297,16.8997181 10.5049453,15.6551926 9.92646094,14.1443322 C10.1962891,14.1102853 10.4711484,14.0927127 10.75,14.0927127 C12.1026953,14.0927127 13.3611094,14.5058338 14.4066797,15.2129668 C13.8312031,15.9375077 13.3672344,16.7550735 13.0411328,17.6392506 Z M16,24.6321076 C15.1761875,23.530744 14.6875,22.1628259 14.6875,20.6824429 C14.6875,20.6100108 14.6887031,20.5378533 14.691,20.4660252 C15.1354453,20.5361509 15.5909375,20.5726141 16.0546875,20.5726141 C16.4806484,20.5726141 16.8996094,20.541862 17.3094922,20.4824995 C17.3114609,20.5488911 17.3125,20.6155572 17.3125,20.6824429 C17.3125,22.1628259 16.8238125,23.530744 16,24.6321076 Z M15.1271328,18.3104146 C15.3461016,17.7424897 15.64125,17.2123459 16,16.7327783 C16.3616484,17.2162997 16.6587109,17.7511662 16.8782266,18.3244178 C16.6083984,18.3584647 16.3335391,18.3760373 16.0546875,18.3760373 C15.7399063,18.3760373 15.4302109,18.3536323 15.1271328,18.3104146 Z M18.9760937,17.6863672 C18.6491719,16.7841232 18.1790234,15.9503576 17.5933203,15.2129668 C18.6388906,14.5058338 19.8973047,14.0927127 21.25,14.0927127 C21.5647812,14.0927127 21.8744766,14.1151177 22.1775547,14.1583354 C21.5849609,15.69539 20.4341172,16.9554562 18.9760937,17.6863672 Z M22.6136875,12.0027248 C22.1692422,11.9325991 21.71375,11.8961359 21.25,11.8961359 C19.2818516,11.8961359 17.4633828,12.5520886 16,13.6576257 C14.5366172,12.5520886 12.7181484,11.8961359 10.75,11.8961359 C10.3240391,11.8961359 9.90507813,11.926888 9.49519531,11.9862505 C9.49322656,11.9198589 9.4921875,11.8531928 9.4921875,11.7863071 C9.4921875,8.15272977 12.436125,5.19657676 16.0546875,5.19657676 C19.67325,5.19657676 22.6171875,8.15272977 22.6171875,11.7863071 C22.6171875,11.8587392 22.6159844,11.9308967 22.6136875,12.0027248 Z" id="pantone" fill="#FFFFFF" fill-rule="nonzero"></path>
            </g>
        </g>
    </g>
</svg>