<?xml version="1.0" encoding="UTF-8"?>
<svg width="32px" height="32px" viewBox="0 0 32 32" version="1.1" xmlns="http://www.w3.org/2000/svg" xmlns:xlink="http://www.w3.org/1999/xlink">
    <!-- Generator: Sketch 50 (54983) - http://www.bohemiancoding.com/sketch -->
    <title>toufangguanli@2x</title>
    <desc>Created with Sketch.</desc>
    <defs></defs>
    <g id="Page-1" stroke="none" stroke-width="1" fill="none" fill-rule="evenodd">
        <g id="Apple-TV" transform="translate(-322.000000, -230.000000)" fill="#FFFFFF" fill-rule="nonzero">
            <g id="toufangguanli" transform="translate(322.000000, 230.000000)">
                <path d="M28.90625,21.25 C29.5103281,21.25 30,20.7603281 30,20.15625 L30,18.515625 C30,16.10325 28.037375,14.140625 25.625,14.140625 L24.203125,14.140625 L24.203125,13.8671875 C24.203125,11.7563594 22.4858828,10.0390625 20.375,10.0390625 L18.2421875,10.0390625 L18.2421875,9.328125 C18.2421875,7.51884375 16.7702187,6.046875 14.9609375,6.046875 L12.390625,6.046875 L12.390625,5.28125 C12.390625,3.47196875 10.9186562,2 9.109375,2 L5.28125,2 C3.47196875,2 2,3.47196875 2,5.28125 L2,9.109375 C2,10.9186562 3.47196875,12.390625 5.28125,12.390625 L6.046875,12.390625 L6.046875,14.9609375 C6.046875,16.7702187 7.51884375,18.2421875 9.328125,18.2421875 L10.09375,18.2421875 L10.09375,20.3203125 C10.09375,22.4311406 11.8109922,24.1484375 13.921875,24.1484375 L14.140625,24.1484375 L14.140625,25.625 C14.140625,28.037375 16.10325,30 18.515625,30 L25.625,30 C28.037375,30 30,28.037375 30,25.625 C30,25.0209219 29.5103281,24.53125 28.90625,24.53125 C28.3021719,24.53125 27.8125,25.0209219 27.8125,25.625 C27.8125,26.8311875 26.8311875,27.8125 25.625,27.8125 L18.515625,27.8125 C17.3094375,27.8125 16.328125,26.8311875 16.328125,25.625 L16.328125,18.515625 C16.328125,17.3094375 17.3094375,16.328125 18.515625,16.328125 L25.625,16.328125 C26.8311875,16.328125 27.8125,17.3094375 27.8125,18.515625 L27.8125,20.15625 C27.8125,20.7603281 28.3021719,21.25 28.90625,21.25 Z M6.046875,9.328125 L6.046875,10.203125 L5.28125,10.203125 C4.67815625,10.203125 4.1875,9.71246875 4.1875,9.109375 L4.1875,5.28125 C4.1875,4.67815625 4.67815625,4.1875 5.28125,4.1875 L9.109375,4.1875 C9.71246875,4.1875 10.203125,4.67815625 10.203125,5.28125 L10.203125,6.046875 L9.328125,6.046875 C7.51884375,6.046875 6.046875,7.51884375 6.046875,9.328125 Z M10.09375,13.8671875 L10.09375,16.0546875 L9.328125,16.0546875 C8.72503125,16.0546875 8.234375,15.5640312 8.234375,14.9609375 L8.234375,9.328125 C8.234375,8.72503125 8.72503125,8.234375 9.328125,8.234375 L14.9609375,8.234375 C15.5640312,8.234375 16.0546875,8.72503125 16.0546875,9.328125 L16.0546875,10.0390625 L13.921875,10.0390625 C11.8109922,10.0390625 10.09375,11.7563594 10.09375,13.8671875 Z M22.015625,14.140625 L18.515625,14.140625 C16.10325,14.140625 14.140625,16.10325 14.140625,18.515625 L14.140625,21.9609375 L13.921875,21.9609375 C13.0172344,21.9609375 12.28125,21.2249531 12.28125,20.3203125 L12.28125,13.8671875 C12.28125,12.9625469 13.0172344,12.2265625 13.921875,12.2265625 L20.375,12.2265625 C21.2796406,12.2265625 22.015625,12.9625469 22.015625,13.8671875 L22.015625,14.140625 Z" id="blender"></path>
            </g>
        </g>
    </g>
</svg>