<?xml version="1.0" encoding="UTF-8"?>
<svg width="32px" height="32px" viewBox="0 0 32 32" version="1.1" xmlns="http://www.w3.org/2000/svg" xmlns:xlink="http://www.w3.org/1999/xlink">
    <!-- Generator: Sketch 50 (54983) - http://www.bohemiancoding.com/sketch -->
    <title>zhixingguanli</title>
    <desc>Created with Sketch.</desc>
    <defs></defs>
    <g id="Page-1" stroke="none" stroke-width="1" fill="none" fill-rule="evenodd">
        <g id="Apple-TV" transform="translate(-441.000000, -517.000000)">
            <g id="zhixingguanli" transform="translate(441.000000, 517.000000)">
                <rect id="Rectangle-2-Copy-7" x="0" y="0" width="32" height="32"></rect>
                <path d="M26.71875,27.7578085 C27.3228281,27.7578085 27.8125,28.2474804 27.8125,28.8515585 C27.8125,29.4556367 27.3228281,29.9453085 26.71875,29.9453085 L5.28125,29.9453085 C4.67717187,29.9453085 4.1875,29.4556367 4.1875,28.8515585 C4.1875,28.2474804 4.67717187,27.7578085 5.28125,27.7578085 L26.71875,27.7578085 Z M28.9444219,18.9750507 C29.6251172,19.7679101 30,20.7800117 30,21.8250351 L30,22.8359335 C30,24.3436679 28.7733594,25.5703085 27.265625,25.5703085 C26.6615469,25.5703085 26.171875,25.080582 26.171875,24.4765585 C26.171875,23.8724804 26.6615469,23.3828085 27.265625,23.3828085 C27.5671719,23.3828085 27.8125,23.1374804 27.8125,22.8359335 L27.8125,21.8250351 C27.8125,20.7367539 27.0317266,19.8273554 25.9559688,19.6626914 L19.8785469,18.7325117 C19.1038438,18.6139492 18.3960234,18.2211289 17.8854609,17.6265117 C17.3749531,17.0318398 17.09375,16.2727226 17.09375,15.488996 C17.09375,13.4174882 17.7162578,11.452457 18.8938984,9.80641792 C19.3120938,9.22175386 19.5404141,8.53170698 19.5540313,7.81098042 C19.5908906,5.85945698 18.0353047,4.23441792 16.0864609,4.18848042 C15.1202969,4.16501948 14.2069609,4.52453511 13.5164766,5.19888667 C12.8257188,5.87362104 12.4453125,6.77678511 12.4453125,7.74218354 C12.4453125,8.47969917 12.6689844,9.18669917 13.0920469,9.78662104 C14.278875,11.4697382 14.90625,13.4415507 14.90625,15.4888867 C14.90625,16.2726679 14.6250469,17.0317851 14.1145391,17.626457 C13.6039766,18.2211289 12.8961563,18.6138945 12.1214531,18.7325117 L6.04403125,19.6626914 C4.96827344,19.8273554 4.1875,20.7367539 4.1875,21.8250351 L4.1875,22.8359335 C4.1875,23.1374804 4.43282813,23.3828085 4.734375,23.3828085 L21.796875,23.3828085 C22.4009531,23.3828085 22.890625,23.8724804 22.890625,24.4765585 C22.890625,25.080582 22.4009531,25.5703085 21.796875,25.5703085 L4.734375,25.5703085 C3.22664062,25.5703085 2,24.3436679 2,22.8359335 L2,21.8250351 C2,20.7800664 2.37488281,19.7679101 3.05563281,18.9750507 C3.73632812,18.1821914 4.680125,17.6585039 5.7130625,17.5004023 L11.7905391,16.5702226 C12.3283906,16.4878632 12.7188047,16.0331914 12.7188047,15.4890507 C12.7188047,13.895457 12.2297344,12.3595039 11.3044219,11.047332 C10.6196797,10.0764101 10.2578125,8.93355073 10.2578125,7.74218354 C10.2578125,6.18276948 10.8722813,4.72376167 11.9880703,3.63400386 C13.1034766,2.54451948 14.5773594,1.96559761 16.1380859,2.00158198 C19.2871563,2.07584761 21.8007031,4.70046479 21.7410938,7.85232417 C21.7191094,9.01733198 21.34975,10.1331757 20.6729922,11.0792695 C19.7625,12.3518476 19.28125,13.8766992 19.28125,15.488996 C19.28125,16.0331367 19.6716641,16.4878085 20.2095156,16.5701679 L26.2869375,17.5003476 C27.3199297,17.6585039 28.2636719,18.1821914 28.9444219,18.9750507 Z" id="stamp" fill="#FFFFFF" fill-rule="nonzero"></path>
            </g>
        </g>
    </g>
</svg>