<?xml version="1.0" encoding="UTF-8"?>
<svg width="32px" height="32px" viewBox="0 0 32 32" version="1.1" xmlns="http://www.w3.org/2000/svg" xmlns:xlink="http://www.w3.org/1999/xlink">
    <!-- Generator: Sketch 50 (54983) - http://www.bohemiancoding.com/sketch -->
    <title>koltoufang</title>
    <desc>Created with Sketch.</desc>
    <defs></defs>
    <g id="Page-1" stroke="none" stroke-width="1" fill="none" fill-rule="evenodd">
        <g id="Apple-TV" transform="translate(-441.000000, -326.000000)">
            <g id="koltoufang" transform="translate(441.000000, 326.000000)">
                <rect id="Rectangle-2-Copy-3" x="0" y="0" width="32" height="32"></rect>
                <path d="M8.87388065,22.5624565 L17.871596,22.5624565 C18.7826331,22.5624565 19.6112017,22.2045275 20.2261066,21.6226538 C20.2920049,21.580982 20.3547314,21.5322555 20.4123719,21.4751072 L25.0615105,16.8677498 L25.0671979,16.8620623 C25.7104856,16.2151105 26.0647505,15.3563545 26.0647505,14.4439502 L26.0647505,13.5937255 C26.0647505,12.9896486 25.5750797,12.4999778 24.9710028,12.4999778 C24.366926,12.4999778 23.8772551,12.9896486 23.8772551,13.5937255 L23.8772551,14.4439502 C23.8772551,14.7733323 23.7497789,15.0833551 23.5183418,15.3173078 L21.3023543,17.513389 L21.3023543,10.0800063 C21.3023543,9.4589764 21.1310735,8.85260268 20.819246,8.32869754 L23.8683411,5.28288368 C23.8740286,5.33100857 23.8773098,5.3798991 23.8773098,5.42955524 L23.8773098,8.12498704 C23.8773098,8.72906388 24.3669807,9.21873472 24.9710575,9.21873472 C25.5751344,9.21873472 26.0648052,8.72906388 26.0648052,8.12498704 L26.0648052,5.42955524 C26.0648052,3.53852018 24.5263397,2 22.63525,2 L13.5445114,2 C12.6062399,2 11.6999606,2.3901398 11.0547042,3.07105242 L6.6533541,7.463215 C6.64072132,7.4757931 6.62978384,7.48930088 6.61791668,7.50231648 C6.57449489,7.53977734 6.53183873,7.57844132 6.49000288,7.61836311 C5.82467617,8.25372114 5.4430676,9.15103174 5.4430676,10.0800063 L5.4430676,19.1285809 C5.4430676,21.0219676 6.98207997,22.5624565 8.87388065,22.5624565 Z M12.6117634,4.60760386 L12.6375758,4.5809711 C12.8750831,4.32727632 13.1971918,4.18749537 13.5445114,4.18749537 L21.8696813,4.18749537 L19.1406167,6.91360679 C18.7342895,6.76015399 18.2973373,6.68824008 17.848846,6.70552129 L10.5094709,6.70552129 L12.6117634,4.60760386 Z M7.63050828,10.0799516 C7.63050828,9.74067112 7.76203144,9.42829678 8.00074187,9.20030507 C8.21106955,8.99943831 8.48270179,8.89055573 8.77068556,8.89055573 C8.78824021,8.89055573 8.80590423,8.89093854 8.82356826,8.89175885 L8.84866977,8.89290729 L17.871596,8.89290729 L17.9219084,8.89175885 C18.2289234,8.87759482 18.5215009,8.98718834 18.7446801,9.20030507 C18.9834452,9.42829678 19.1149137,9.74067112 19.1149137,10.0799516 L19.1149137,19.1285262 C19.1149137,19.8157826 18.557157,20.3749064 17.871596,20.3749064 L8.87382596,20.3749064 C8.18826491,20.3749064 7.63050828,19.8157826 7.63050828,19.1285262 L7.63050828,10.0799516 Z M26.9921939,21.5233962 C28.6506982,21.5233962 30,22.8726433 30,24.5312023 L30,28.0858823 C30,28.6899591 29.5103292,29.17963 28.9062523,29.17963 C28.3021755,29.17963 27.8125046,28.6899591 27.8125046,28.0858823 L27.8125046,25.4212395 C27.1758888,25.93459 26.2081955,26.6408775 24.9489091,27.3451417 C22.7833981,28.5563032 19.2928117,29.9999407 14.9609693,29.9999407 C10.6014004,29.9999407 7.39146973,28.5388579 5.46636443,27.3132042 C3.35674389,25.9700274 2.27737899,24.6064522 2.23248065,24.5490304 C1.86016893,24.0733595 1.94400469,23.3858844 2.41973025,23.0136274 C2.8954558,22.641261 3.58287622,22.7252608 3.95513325,23.200877 C3.96202386,23.2095176 4.89723282,24.3739214 6.72061958,25.5181455 C9.14660664,27.0405329 11.9190383,27.8124454 14.9609693,27.8124454 C20.7162696,27.8124454 24.869339,24.9848889 26.4481638,23.7108915 L23.4375139,23.7108915 C22.833437,23.7108915 22.3437662,23.2212207 22.3437662,22.6171439 C22.3437662,22.013067 22.833437,21.5233962 23.4375139,21.5233962 L26.9921939,21.5233962 Z" id="3d" fill="#FFFFFF" fill-rule="nonzero"></path>
            </g>
        </g>
    </g>
</svg>