<?xml version="1.0" encoding="UTF-8"?>
<svg width="32px" height="32px" viewBox="0 0 32 32" version="1.1" xmlns="http://www.w3.org/2000/svg" xmlns:xlink="http://www.w3.org/1999/xlink">
    <!-- Generator: Sketch 50 (54983) - http://www.bohemiancoding.com/sketch -->
    <title>kolxuanhao</title>
    <desc>Created with Sketch.</desc>
    <defs></defs>
    <g id="Page-1" stroke="none" stroke-width="1" fill="none" fill-rule="evenodd">
        <g id="Apple-TV" transform="translate(-440.000000, -230.000000)">
            <g id="kolxuanhao" transform="translate(440.000000, 230.000000)">
                <rect id="Rectangle-2-Copy" x="0" y="0" width="32" height="32"></rect>
                <path d="M28.90625,21.25 C29.5103281,21.25 30,20.7603281 30,20.15625 L30,15.125 C30,12.712625 28.037375,10.75 25.625,10.75 C25.625,8.337625 23.662375,6.375 21.25,6.375 C21.25,3.962625 19.287375,2 16.875,2 L6.375,2 C3.962625,2 2,3.962625 2,6.375 L2,16.875 C2,19.287375 3.962625,21.25 6.375,21.25 C6.375,23.662375 8.337625,25.625 10.75,25.625 C10.75,28.037375 12.712625,30 15.125,30 L25.625,30 C28.037375,30 30,28.037375 30,25.625 C30,25.0209219 29.5103281,24.53125 28.90625,24.53125 C28.3021719,24.53125 27.8125,25.0209219 27.8125,25.625 C27.8125,26.8311875 26.8311875,27.8125 25.625,27.8125 L15.125,27.8125 C13.9188125,27.8125 12.9375,26.8311875 12.9375,25.625 L21.25,25.625 C23.662375,25.625 25.625,23.662375 25.625,21.25 L25.625,12.9375 C26.8311875,12.9375 27.8125,13.9188125 27.8125,15.125 L27.8125,20.15625 C27.8125,20.7603281 28.3021719,21.25 28.90625,21.25 Z M6.375,19.0625 C5.1688125,19.0625 4.1875,18.0811875 4.1875,16.875 L4.1875,6.375 C4.1875,5.1688125 5.1688125,4.1875 6.375,4.1875 L16.875,4.1875 C18.0811875,4.1875 19.0625,5.1688125 19.0625,6.375 L19.0625,16.875 C19.0625,18.0811875 18.0811875,19.0625 16.875,19.0625 L6.375,19.0625 Z M23.4375,21.25 C23.4375,22.4561875 22.4561875,23.4375 21.25,23.4375 L10.75,23.4375 C9.5438125,23.4375 8.5625,22.4561875 8.5625,21.25 L16.875,21.25 C19.287375,21.25 21.25,19.287375 21.25,16.875 L21.25,8.5625 C22.4561875,8.5625 23.4375,9.5438125 23.4375,10.75 L23.4375,21.25 Z" id="burst" fill="#FFFFFF" fill-rule="nonzero"></path>
            </g>
        </g>
    </g>
</svg>