<?xml version="1.0" encoding="UTF-8"?>
<svg width="32px" height="32px" viewBox="0 0 32 32" version="1.1" xmlns="http://www.w3.org/2000/svg" xmlns:xlink="http://www.w3.org/1999/xlink">
    <!-- Generator: Sketch 50 (54983) - http://www.bohemiancoding.com/sketch -->
    <title>liuliangtoufang</title>
    <desc>Created with Sketch.</desc>
    <defs></defs>
    <g id="Page-1" stroke="none" stroke-width="1" fill="none" fill-rule="evenodd">
        <g id="Apple-TV" transform="translate(-441.000000, -424.000000)">
            <g id="liuliangtoufang" transform="translate(441.000000, 424.000000)">
                <rect id="Rectangle-2-Copy-5" x="0" y="0" width="32" height="32"></rect>
                <path d="M25.5417175,2.00021362 C25.5400085,2.00021362 25.5382995,2 25.536377,2 C25.5355225,2 25.534668,2 25.5338135,2 C25.532959,2 25.5321045,2 25.53125,2 C25.529541,2 25.527832,2.00021362 25.5259094,2.00021362 C25.4795532,2.00042725 25.4334107,2.00213623 25.3872681,2.00384521 C25.3624878,2.00213623 25.3377075,2 25.3125,2 L10.9296875,2 C8.51724245,2 6.5546875,3.96255495 6.5546875,6.375 C6.5546875,6.41387942 6.5568237,6.4519043 6.56066895,6.48971556 C6.57882689,9.05084231 7.19256589,12.0765991 7.84219362,15.2777405 C8.24209596,17.2484131 8.6531067,19.2750549 8.93380736,21.25 L5.7890625,21.25 C5.58718873,21.25 5.38916016,21.3059693 5.21697995,21.411499 C5.12747194,21.4666138 3.03909303,22.7797546 3.00256348,25.5510865 C3.00085449,25.5754395 3,25.6002197 3,25.625 C3,28.0374451 4.96255495,30 7.375,30 L21.7103882,30 C24.117279,29.9942322 26.0742798,28.0344544 26.0749206,25.6260681 C26.0749206,25.0221557 25.5855103,24.5323181 24.9813842,24.5321045 C24.9811706,24.5321045 24.9811706,24.5321045 24.9811706,24.5321045 C24.3772583,24.5321045 23.8874206,25.0217285 23.8874206,25.6256409 C23.8869934,26.8306885 22.9071045,27.8110046 21.7024841,27.8125 C20.4974365,27.8110046 19.5175476,26.8302612 19.5175476,25.625 C19.5175476,24.0935364 20.5942077,23.3398743 20.6941833,23.2730103 C21.1182251,23.0237122 21.3126221,22.5278931 21.1844482,22.0523682 C21.0558471,21.5749206 20.6115112,21.25 20.1171875,21.25 L11.1426697,21.25 C10.8529968,19.1139831 10.413147,16.946991 9.98611452,14.842804 C9.34909056,11.7040405 8.74752806,8.73959349 8.74752806,6.37414551 C8.74752806,6.35086061 8.74539186,6.32821654 8.74389648,6.30535886 C8.78085326,5.13150026 9.7468567,4.1875 10.9296875,4.1875 L21.7501221,4.1875 C21.376709,4.83135989 21.1618042,5.5779724 21.1615906,6.37414551 C21.1615906,8.95941159 21.7843018,12.0285339 22.4439697,15.2777405 C22.8058471,17.0610657 23.1801147,18.9052734 23.4554749,20.7059021 C23.5383606,21.2470093 24.0042725,21.6345215 24.5353393,21.6345215 C24.5902405,21.6345215 24.6459961,21.630249 24.7019654,21.6219177 C25.2992553,21.530487 25.709198,20.9725036 25.617981,20.3752136 C25.3345032,18.5222473 24.954895,16.6515503 24.587677,14.8425904 C23.9506531,11.7040405 23.3490906,8.73959349 23.3490906,6.37435912 C23.3493042,5.16931152 24.3291931,4.18899537 25.5340271,4.1875 C26.7388611,4.18899537 27.71875,5.1697388 27.71875,6.375 C27.71875,7.54351809 27.09198,8.25915527 26.7506104,8.5625 L26.5703125,8.5625 C25.9661865,8.5625 25.4765625,9.05212402 25.4765625,9.65625 C25.4765625,10.260376 25.9661865,10.75 26.5703125,10.75 L27.1191101,10.75 C27.3209839,10.75 27.5190124,10.6940307 27.6911926,10.588501 C27.7815552,10.532959 29.90625,9.19696042 29.90625,6.375 C29.90625,3.96618652 27.9492493,2.00598145 25.5417175,2.00021362 Z M17.9172974,27.8125 L7.375,27.8125 C6.18682864,27.8125 5.21697995,26.8603821 5.18814088,25.6790466 C5.18899537,25.6611023 5.18942259,25.6431579 5.18942259,25.625 C5.18942259,24.4564819 5.81619264,23.7408447 6.15777591,23.4375 L17.8117676,23.4375 C17.5310669,24.030304 17.3300476,24.7572632 17.3300476,25.625 C17.3300476,26.4213867 17.5438842,27.1686401 17.9172974,27.8125 Z M12.078125,10.75 C11.473999,10.75 10.984375,10.260376 10.984375,9.65625 C10.984375,9.05212402 11.473999,8.5625 12.078125,8.5625 L18.2578125,8.5625 C18.8619385,8.5625 19.3515625,9.05212402 19.3515625,9.65625 C19.3515625,10.260376 18.8619385,10.75 18.2578125,10.75 L12.078125,10.75 Z M18.9140625,14.578125 L12.7890625,14.578125 C12.1849365,14.578125 11.6953125,14.088501 11.6953125,13.484375 C11.6953125,12.880249 12.1849365,12.390625 12.7890625,12.390625 L18.9140625,12.390625 C19.5181885,12.390625 20.0078125,12.880249 20.0078125,13.484375 C20.0078125,14.088501 19.5181885,14.578125 18.9140625,14.578125 Z M17.546875,16.21875 C18.151001,16.21875 18.640625,16.708374 18.640625,17.3125 C18.640625,17.916626 18.151001,18.40625 17.546875,18.40625 L13.6640625,18.40625 C13.0599365,18.40625 12.5703125,17.916626 12.5703125,17.3125 C12.5703125,16.708374 13.0599365,16.21875 13.6640625,16.21875 L17.546875,16.21875 Z" id="scroll" fill="#FFFFFF" fill-rule="nonzero"></path>
            </g>
        </g>
    </g>
</svg>