<?xml version="1.0" encoding="UTF-8"?>
<svg width="32px" height="32px" viewBox="0 0 32 32" version="1.1" xmlns="http://www.w3.org/2000/svg" xmlns:xlink="http://www.w3.org/1999/xlink">
    <!-- Generator: Sketch 50 (54983) - http://www.bohemiancoding.com/sketch -->
    <title>neirongfenxi</title>
    <desc>Created with Sketch.</desc>
    <defs></defs>
    <g id="Page-1" stroke="none" stroke-width="1" fill="none" fill-rule="evenodd">
        <g id="Apple-TV" transform="translate(-440.000000, -611.000000)">
            <g id="neirongfenxi" transform="translate(440.000000, 611.000000)">
                <rect id="Rectangle-2-Copy-8" x="0" y="0" width="32" height="32"></rect>
                <path d="M19.3359375,2 C14.6541406,2 10.6673125,5.03269531 9.23674219,9.23679687 C5.03269531,10.6673125 2,14.6541406 2,19.3359375 C2,25.2161016 6.78389844,30 12.6640625,30 C17.34575,30 21.3324688,26.9674688 22.7630937,22.7635859 C23.2739844,22.5908828 23.7713125,22.3795703 24.2492812,22.1310156 C25.7058828,21.3736484 26.9881953,20.2706562 27.9575859,18.9413125 C28.3134922,18.4532266 28.2063594,17.7690313 27.7182734,17.4131797 C27.2302422,17.0572188 26.5459922,17.1644063 26.1901406,17.6524922 C25.4207422,18.7075781 24.4251016,19.5573125 23.2971172,20.1538437 C23.317625,19.8838516 23.328125,19.6110703 23.328125,19.3359375 C23.328125,13.4557734 18.5442266,8.671875 12.6640625,8.671875 C12.3878359,8.671875 12.1140156,8.68242969 11.8430391,8.70315625 C13.2674297,6.01947656 16.0917656,4.1875 19.3359375,4.1875 C24.0099141,4.1875 27.8125,7.99008594 27.8125,12.6640625 C27.8125,13.2681406 28.3021719,13.7578125 28.90625,13.7578125 C29.5103281,13.7578125 30,13.2681406 30,12.6640625 C30,6.78389844 25.2161016,2 19.3359375,2 Z M12.6640625,27.8125 C7.99008594,27.8125 4.1875,24.0099141 4.1875,19.3359375 C4.1875,16.0917656 6.01942187,13.2674297 8.70315625,11.8430391 C8.68242969,12.1140156 8.671875,12.3878359 8.671875,12.6640625 C8.671875,18.5442266 13.4557734,23.328125 19.3359375,23.328125 C19.6101953,23.328125 19.8842344,23.3174609 20.1572344,23.2962969 C18.7329531,25.9803047 15.9084531,27.8125 12.6640625,27.8125 Z M21.140625,19.3359375 C21.140625,19.8975781 21.0857187,20.4465859 20.9809922,20.9779844 C20.4433047,21.0851719 19.8925469,21.140625 19.3359375,21.140625 C19.119375,21.140625 18.9046719,21.1324219 18.6921016,21.1163984 L21.1163984,18.6921016 C21.1324219,18.9046719 21.140625,19.119375 21.140625,19.3359375 Z M20.5324453,16.1824922 L16.1824922,20.5324453 C15.4881797,20.2532109 14.8390938,19.8845625 14.2494531,19.4408828 L19.4408281,14.2495078 C19.8845078,14.8390937 20.2531563,15.4881797 20.5324453,16.1824922 Z M17.9125859,12.6841875 L12.6841328,17.9125859 C12.2196172,17.3251328 11.8311172,16.6749531 11.5336172,15.9769766 L15.9769766,11.5336172 C16.6749531,11.8311719 17.3251328,12.2196719 17.9125859,12.6841875 Z M12.6640625,10.859375 C12.9513359,10.859375 13.2352734,10.8737578 13.5152734,10.9018125 L10.9018125,13.5152734 C10.8737578,13.2352734 10.859375,12.9513359 10.859375,12.6640625 C10.859375,12.1015469 10.9145,11.5516641 11.0195,11.0195 C11.5516641,10.9145 12.1015469,10.859375 12.6640625,10.859375 Z" id="transparency" fill="#FFFFFF" fill-rule="nonzero"></path>
            </g>
        </g>
    </g>
</svg>