<?xml version="1.0" encoding="UTF-8"?>
<svg width="32px" height="32px" viewBox="0 0 32 32" version="1.1" xmlns="http://www.w3.org/2000/svg" xmlns:xlink="http://www.w3.org/1999/xlink">
    <!-- Generator: Sketch 50 (54983) - http://www.bohemiancoding.com/sketch -->
    <title>shujufenxi</title>
    <desc>Created with Sketch.</desc>
    <defs></defs>
    <g id="Page-1" stroke="none" stroke-width="1" fill="none" fill-rule="evenodd">
        <g id="Apple-TV" transform="translate(-440.000000, -709.000000)">
            <g id="shujufenxi" transform="translate(440.000000, 709.000000)">
                <rect id="Rectangle-2-Copy-9" x="0" y="0" width="32" height="32"></rect>
                <path d="M28.8015781,27.8210312 C29.4033047,27.8210312 29.8910078,28.3087891 29.8910078,28.9105156 C29.8910078,29.5122422 29.40325,30 28.8015234,30 L3.08948437,30 C2.48775781,30 2,29.5122422 2,28.9105156 C2,28.3087891 2.48775781,27.8210312 3.08948437,27.8210312 L28.8015781,27.8210312 Z M26.5680859,17.4163516 C25.9663594,17.4163516 25.4786016,16.9285938 25.4786562,16.3268672 L25.4786562,5.81325 C25.4786562,4.91216406 24.7455703,4.17902344 23.8444297,4.17902344 L20.7393828,4.17902344 C19.8382969,4.17902344 19.1051562,4.91210938 19.1051562,5.81325 L19.1051562,21.8288125 C19.1051562,22.7298984 19.8382422,23.4630391 20.7393828,23.4630391 L23.8444297,23.4630391 C24.7455156,23.4630391 25.4786562,22.7299531 25.4786562,21.8288125 C25.4786562,21.2270859 25.9664141,20.7393281 26.5681406,20.7393281 C27.1698672,20.7393281 27.657625,21.2270859 27.657625,21.8288125 C27.657625,23.9314375 25.947,25.6420625 23.844375,25.6420625 L20.7393281,25.6420625 C18.6367031,25.6420625 16.9260781,23.9314375 16.9260781,21.8288125 L16.9260781,5.81325 C16.9260781,3.710625 18.6367031,2 20.7393281,2 L23.844375,2 C25.947,2 27.6575703,3.710625 27.6575703,5.81325 L27.6575703,16.3268672 C27.6575703,16.9285938 27.1698125,17.4163516 26.5680859,17.4163516 Z M11.0427969,11.8054687 C13.1454219,11.8054687 14.8560469,13.5160391 14.8560469,15.6186641 L14.8560469,21.8288125 C14.8560469,23.9314375 13.1454219,25.6420625 11.0427969,25.6420625 L7.93775,25.6420625 C5.835125,25.6420625 4.1245,23.9314375 4.1245,21.8288125 L4.1245,15.6187187 C4.1245,13.5160937 5.835125,11.8054687 7.93775,11.8054687 L11.0427969,11.8054687 Z M12.6770234,21.8288125 L12.6770234,15.6186641 C12.6770234,14.7175781 11.9439375,13.9844375 11.0427969,13.9844375 L7.93775,13.9844375 C7.03666406,13.9844375 6.30352344,14.7175234 6.30352344,15.6186641 L6.30352344,21.8288125 C6.30352344,22.7298984 7.03660937,23.4630391 7.93775,23.4630391 L11.0427969,23.4630391 C11.9438828,23.4630391 12.6770234,22.7299531 12.6770234,21.8288125 Z" id="vertical-alignment" fill="#FFFFFF" fill-rule="nonzero"></path>
            </g>
        </g>
    </g>
</svg>