<?xml version="1.0" encoding="UTF-8"?>
<svg width="32px" height="32px" viewBox="0 0 32 32" version="1.1" xmlns="http://www.w3.org/2000/svg" xmlns:xlink="http://www.w3.org/1999/xlink">
    <!-- Generator: Sketch 50 (54983) - http://www.bohemiancoding.com/sketch -->
    <title>sucaifenxi</title>
    <desc>Created with Sketch.</desc>
    <defs></defs>
    <g id="Page-1" stroke="none" stroke-width="1" fill="none" fill-rule="evenodd">
        <g id="Apple-TV" transform="translate(-322.000000, -424.000000)">
            <g id="sucaifenxi" transform="translate(322.000000, 424.000000)">
                <rect id="Rectangle-2-Copy-4" x="0" y="0" width="32" height="32"></rect>
                <path d="M28.359155,3.6409544 C27.3010057,2.58275045 25.8941687,2 24.3977535,2 C22.9013382,2 21.4945012,2.58275045 20.4363519,3.64089971 L4.77952729,19.2977244 C4.64630844,19.4309432 4.54973024,19.5963183 4.49925364,19.7778263 L2.04006423,28.6129816 C1.93402508,28.9940444 2.04197829,29.4027244 2.32241601,29.6816856 C2.53022867,29.8884045 2.80869764,30.0000217 3.09383848,30.0000217 C3.19353387,30.0000217 3.29404958,29.9863499 3.39259653,29.9583498 L12.2277518,27.4486838 C12.6005568,27.3428087 12.8894711,27.0475507 12.9872524,26.6725582 C13.0850337,26.2975657 12.9770805,25.8988389 12.7034788,25.6243621 L7.13344318,20.0374281 L16.9896696,10.1812017 L21.8120171,15.0035492 L15.0029805,21.7940466 C14.5752693,22.2206095 14.5742849,22.9131178 15.0008477,23.3408291 C15.4274106,23.768595 16.1199189,23.7694153 16.5476302,23.3429619 L28.3591003,11.5637027 C29.4172495,10.5055535 30,9.09871645 30,7.60230122 C30,6.105886 29.4172495,4.69899428 28.359155,3.6409544 Z M9.84189841,25.8524091 L4.6702069,27.3214259 L6.11860646,22.1177969 L9.84189841,25.8524091 Z M23.3609323,13.4588995 L18.536452,8.63441921 L20.1068595,7.06401174 L24.9334726,11.8906249 L23.3609323,13.4588995 Z M26.8133569,10.0158265 L26.4823332,10.3459752 L21.653642,5.51728398 L21.9831891,5.18773685 C22.6281193,4.54269729 23.4856199,4.1875017 24.3977535,4.1875017 C25.3098323,4.1875017 26.167333,4.54269729 26.8123725,5.18773685 C27.4573027,5.83266704 27.8124983,6.69022239 27.8124983,7.60230122 C27.8124983,8.51443475 27.4573027,9.37188072 26.8133569,10.0158265 Z" id="pencil" fill="#FFFFFF" fill-rule="nonzero"></path>
            </g>
        </g>
    </g>
</svg>