<svg t="1624257671457" class="icon" viewBox="0 0 1024 1024" version="1.1" xmlns="http://www.w3.org/2000/svg" p-id="2407" width="200" height="200">
	<path d="M376.131 0c188.824 0 341.91 146.097 341.91 326.447 0 90.096-38.33 171.686-100.169 230.803l-241.74 230.846L134.336 557.25C70.034 495.956 34.03 412.968 34.19 326.511 34.19 146.171 187.244 0.053 376.13 0.053z m0 471.466c40.422-0.096 79.147-15.43 107.66-42.63s44.466-64.026 44.37-102.389v-0.117c0.117-38.362-15.825-75.188-44.327-102.378s-67.228-42.534-107.639-42.63h-0.064c-40.421 0.096-79.147 15.43-107.66 42.62s-44.476 64.026-44.37 102.388v0.117c-0.213 79.809 67.75 144.688 151.838 144.955h0.192z m152.03 422.732c0 33.475-68.07 60.622-152.03 60.622s-152.03-27.19-152.03-60.622 68.06-60.622 152.03-60.622 152.03 27.136 152.03 60.622z m0 0" p-id="2408" fill="#c90f3b">
	</path>
</svg>
